<svg width="28" height="28" viewBox="0 0 28 28" fill="none" xmlns="http://www.w3.org/2000/svg">
<rect width="28" height="28" rx="6" fill="white" fill-opacity="0.08"/>
<path d="M20.6666 17.2802V19.2802C20.6674 19.4659 20.6294 19.6497 20.555 19.8198C20.4806 19.9899 20.3715 20.1426 20.2347 20.2681C20.0979 20.3937 19.9364 20.4892 19.7605 20.5487C19.5846 20.6082 19.3982 20.6303 19.2133 20.6136C17.1619 20.3907 15.1913 19.6897 13.46 18.5669C11.8492 17.5433 10.4835 16.1777 9.45998 14.5669C8.33329 12.8277 7.63214 10.8476 7.41331 8.78689C7.39665 8.60254 7.41856 8.41673 7.47764 8.24131C7.53673 8.06589 7.63169 7.90469 7.75649 7.76797C7.88128 7.63126 8.03318 7.52203 8.2025 7.44724C8.37183 7.37245 8.55487 7.33374 8.73998 7.33356H10.74C11.0635 7.33038 11.3772 7.44495 11.6225 7.65592C11.8678 7.86689 12.028 8.15986 12.0733 8.48023C12.1577 9.12027 12.3143 9.74871 12.54 10.3536C12.6297 10.5922 12.6491 10.8515 12.5959 11.1008C12.5427 11.3501 12.4192 11.579 12.24 11.7602L11.3933 12.6069C12.3423 14.2759 13.7243 15.6579 15.3933 16.6069L16.24 15.7602C16.4212 15.581 16.6501 15.4575 16.8994 15.4043C17.1487 15.3511 17.408 15.3705 17.6466 15.4602C18.2515 15.6859 18.8799 15.8425 19.52 15.9269C19.8438 15.9726 20.1396 16.1357 20.351 16.3852C20.5624 16.6348 20.6748 16.9533 20.6666 17.2802Z" stroke="#FEFEFE" stroke-width="1.33333" stroke-linecap="round" stroke-linejoin="round"/>
</svg>
