<svg width="57" height="57" viewBox="0 0 57 57" fill="none" xmlns="http://www.w3.org/2000/svg">
<path d="M55.0936 41.6094V49.7413C55.0966 50.4962 54.9419 51.2434 54.6394 51.9351C54.3369 52.6268 53.8932 53.2477 53.3367 53.758C52.7802 54.2684 52.1233 54.6569 51.4079 54.8988C50.6926 55.1406 49.9346 55.2305 49.1825 55.1625C40.8387 54.2562 32.8239 51.406 25.7821 46.8409C19.2306 42.6792 13.6761 37.1265 9.51301 30.5772C4.93049 23.5057 2.0787 15.4546 1.18867 7.07608C1.12091 6.32651 1.21002 5.57104 1.45033 4.85778C1.69064 4.14451 2.07688 3.48909 2.58446 2.93323C3.09204 2.37736 3.70984 1.93325 4.39853 1.62915C5.08722 1.32505 5.8317 1.16764 6.58458 1.16693H14.7191C16.035 1.15398 17.3108 1.61981 18.3085 2.4776C19.3063 3.33539 19.958 4.5266 20.1421 5.8292C20.4855 8.43157 21.1222 10.9868 22.0402 13.446C22.405 14.4162 22.484 15.4706 22.2677 16.4843C22.0515 17.498 21.5491 18.4285 20.82 19.1655L17.3764 22.6079C21.2364 29.3941 26.8571 35.013 33.6455 38.8717L37.0891 35.4292C37.8263 34.7004 38.7571 34.1982 39.7711 33.982C40.7851 33.7658 41.8399 33.8447 42.8104 34.2094C45.2705 35.1271 47.8265 35.7636 50.4298 36.1068C51.7469 36.2926 52.9498 36.9558 53.8097 37.9704C54.6697 38.9849 55.1266 40.28 55.0936 41.6094Z" stroke="white" stroke-width="2.33333" stroke-linecap="round" stroke-linejoin="round"/>
</svg>
