<svg width="22" height="22" viewBox="0 0 22 22" fill="none" xmlns="http://www.w3.org/2000/svg">
<path d="M3.66668 12.8333C3.49321 12.8339 3.32314 12.7853 3.17622 12.6931C3.0293 12.6008 2.91156 12.4688 2.83668 12.3123C2.76181 12.1559 2.73287 11.9814 2.75322 11.8091C2.77358 11.6368 2.8424 11.4739 2.95168 11.3392L12.0267 1.98915C12.0948 1.91058 12.1875 1.85748 12.2897 1.83858C12.392 1.81967 12.4976 1.83608 12.5893 1.88512C12.6809 1.93415 12.7532 2.01289 12.7942 2.10842C12.8353 2.20395 12.8426 2.31058 12.815 2.41082L11.055 7.92915C11.0031 8.06805 10.9857 8.21746 11.0042 8.36458C11.0228 8.51169 11.0767 8.65211 11.1614 8.77379C11.2462 8.89548 11.3591 8.99479 11.4907 9.06322C11.6222 9.13164 11.7684 9.16714 11.9167 9.16665H18.3333C18.5068 9.16606 18.6769 9.2147 18.8238 9.30692C18.9707 9.39914 19.0885 9.53116 19.1633 9.68763C19.2382 9.84411 19.2672 10.0186 19.2468 10.1909C19.2264 10.3632 19.1576 10.5261 19.0483 10.6608L9.97335 20.0108C9.90527 20.0894 9.81251 20.1425 9.71028 20.1614C9.60805 20.1803 9.50243 20.1639 9.41076 20.1149C9.31909 20.0658 9.24681 19.9871 9.20579 19.8916C9.16477 19.796 9.15744 19.6894 9.18501 19.5892L10.945 14.0708C10.9969 13.9319 11.0143 13.7825 10.9958 13.6354C10.9773 13.4883 10.9233 13.3479 10.8386 13.2262C10.7539 13.1045 10.6409 13.0052 10.5093 12.9368C10.3778 12.8683 10.2316 12.8328 10.0833 12.8333H3.66668Z" stroke="white" stroke-width="1.83333" stroke-linecap="round" stroke-linejoin="round"/>
</svg>
