<svg width="22" height="22" viewBox="0 0 22 22" fill="none" xmlns="http://www.w3.org/2000/svg">
<path d="M12.8333 16.5V5.49999C12.8333 5.01376 12.6402 4.54744 12.2964 4.20363C11.9526 3.85981 11.4862 3.66666 11 3.66666H3.66668C3.18045 3.66666 2.71413 3.85981 2.37031 4.20363C2.0265 4.54744 1.83334 5.01376 1.83334 5.49999V15.5833C1.83334 15.8264 1.92992 16.0596 2.10183 16.2315C2.27374 16.4034 2.5069 16.5 2.75001 16.5H4.58334" stroke="white" stroke-width="1.83333" stroke-linecap="round" stroke-linejoin="round"/>
<path d="M13.75 16.5H8.25" stroke="white" stroke-width="1.83333" stroke-linecap="round" stroke-linejoin="round"/>
<path d="M17.4167 16.5H19.25C19.4931 16.5 19.7263 16.4034 19.8982 16.2315C20.0701 16.0596 20.1667 15.8265 20.1667 15.5833V12.2375C20.1663 12.0295 20.0952 11.8278 19.965 11.6655L16.775 7.67801C16.6893 7.57065 16.5805 7.48393 16.4567 7.42428C16.333 7.36462 16.1974 7.33354 16.06 7.33334H12.8333" stroke="white" stroke-width="1.83333" stroke-linecap="round" stroke-linejoin="round"/>
<path d="M15.5833 18.3333C16.5959 18.3333 17.4167 17.5125 17.4167 16.5C17.4167 15.4875 16.5959 14.6667 15.5833 14.6667C14.5708 14.6667 13.75 15.4875 13.75 16.5C13.75 17.5125 14.5708 18.3333 15.5833 18.3333Z" stroke="white" stroke-width="1.83333" stroke-linecap="round" stroke-linejoin="round"/>
<path d="M6.41668 18.3333C7.4292 18.3333 8.25001 17.5125 8.25001 16.5C8.25001 15.4875 7.4292 14.6667 6.41668 14.6667C5.40415 14.6667 4.58334 15.4875 4.58334 16.5C4.58334 17.5125 5.40415 18.3333 6.41668 18.3333Z" stroke="white" stroke-width="1.83333" stroke-linecap="round" stroke-linejoin="round"/>
</svg>
