<svg width="22" height="22" viewBox="0 0 22 22" fill="none" xmlns="http://www.w3.org/2000/svg">
<path d="M1.83331 18.3333C1.83331 18.8196 2.02647 19.2859 2.37028 19.6297C2.7141 19.9735 3.18042 20.1667 3.66665 20.1667H18.3333C18.8195 20.1667 19.2859 19.9735 19.6297 19.6297C19.9735 19.2859 20.1666 18.8196 20.1666 18.3333V7.33334L13.75 11.9167V7.33334L7.33331 11.9167V3.66668C7.33331 3.18045 7.14016 2.71413 6.79634 2.37031C6.45253 2.0265 5.98621 1.83334 5.49998 1.83334H3.66665C3.18042 1.83334 2.7141 2.0265 2.37028 2.37031C2.02647 2.71413 1.83331 3.18045 1.83331 3.66668V18.3333Z" stroke="white" stroke-width="1.83333" stroke-linecap="round" stroke-linejoin="round"/>
<path d="M15.5833 16.5H16.5" stroke="white" stroke-width="1.83333" stroke-linecap="round" stroke-linejoin="round"/>
<path d="M11 16.5H11.9167" stroke="white" stroke-width="1.83333" stroke-linecap="round" stroke-linejoin="round"/>
<path d="M6.41669 16.5H7.33335" stroke="white" stroke-width="1.83333" stroke-linecap="round" stroke-linejoin="round"/>
</svg>
